<svg width="46" height="48" viewBox="0 0 46 48" fill="none" xmlns="http://www.w3.org/2000/svg">
<rect width="45.9997" height="45.9997" rx="1" fill="#00546F"/>
<rect x="4.05884" y="4.05884" width="37.8821" height="37.8821" rx="1" fill="white"/>
<rect x="8.79419" y="10.147" width="29.088" height="3.38233" rx="1" fill="#C4C4C4"/>
<rect x="8.11743" y="23.6763" width="29.088" height="3.38233" rx="1" fill="#C4C4C4"/>
<rect x="8.79419" y="16.9116" width="17.5881" height="3.38233" rx="1" fill="#C4C4C4"/>
<path d="M11.5 35.8527H18.9411V47.3526L15.2206 43.9703L11.5 47.3526V35.8527Z" fill="#01D77D"/>
<path d="M15.2205 29.088L15.8554 30.1527L16.7883 29.3363L17.0631 30.5451L18.2026 30.057L18.0905 31.2915L19.325 31.1794L18.8369 32.3189L20.0456 32.5937L19.2293 33.5266L20.294 34.1615L19.2293 34.7964L20.0456 35.7293L18.8369 36.0042L19.325 37.1436L18.0905 37.0315L18.2026 38.266L17.0631 37.7779L16.7883 38.9867L15.8554 38.1703L15.2205 39.235L14.5855 38.1703L13.6527 38.9867L13.3778 37.7779L12.2383 38.266L12.3505 37.0315L11.1159 37.1436L11.6041 36.0042L10.3953 35.7293L11.2116 34.7964L10.147 34.1615L11.2116 33.5266L10.3953 32.5937L11.6041 32.3189L11.1159 31.1794L12.3505 31.2915L12.2383 30.057L13.3778 30.5451L13.6527 29.3363L14.5855 30.1527L15.2205 29.088Z" fill="#FBC401"/>
</svg>
